<svg width="16" height="16" viewBox="0 0 16 16" fill="none" xmlns="http://www.w3.org/2000/svg">
<path d="M10 14.6663V11.9997C10.0928 11.1645 9.85333 10.3264 9.33337 9.66634C11.3334 9.66634 13.3334 8.33301 13.3334 5.99967C13.3867 5.16634 13.1534 4.34634 12.6667 3.66634C12.8534 2.89967 12.8534 2.09967 12.6667 1.33301C12.6667 1.33301 12 1.33301 10.6667 2.33301C8.90671 1.99967 7.09337 1.99967 5.33337 2.33301C4.00004 1.33301 3.33337 1.33301 3.33337 1.33301C3.13337 2.09967 3.13337 2.89967 3.33337 3.66634C2.84796 4.3436 2.61236 5.1682 2.66671 5.99967C2.66671 8.33301 4.66671 9.66634 6.66671 9.66634C6.40671 9.99301 6.21337 10.3663 6.10004 10.7663C5.98671 11.1663 5.95337 11.5863 6.00004 11.9997M6.00004 11.9997V14.6663M6.00004 11.9997C2.99337 13.333 2.66671 10.6663 1.33337 10.6663" stroke="#27272A" stroke-width="1.5" stroke-linecap="round" stroke-linejoin="round"/>
</svg>
