<svg width="42" height="12" viewBox="0 0 42 12" fill="none" xmlns="http://www.w3.org/2000/svg">
<path d="M15.9277 2.43555C18.077 2.43555 19.8281 4.19453 19.8281 6.36035C19.8281 8.52626 18.077 10.2852 15.9277 10.2852C13.7786 10.2852 12.0274 8.52626 12.0273 6.36035C12.0273 4.19454 13.7786 2.43555 15.9277 2.43555ZM36.4756 2.43555C38.6249 2.43555 40.376 4.19453 40.376 6.36035C40.376 6.56783 40.3506 6.75876 40.3174 6.95801H34.4844C34.5673 7.39751 34.7498 7.75408 35.0068 7.98633C35.4217 8.37641 35.9944 8.55957 36.9404 8.55957C37.6872 8.55957 38.6245 8.09468 38.998 7.7627L39.8779 8.94141C38.8078 10.1277 37.3228 10.2851 36.75 10.2852C35.5716 10.2852 34.6912 9.93729 34.0605 9.43945C33.1561 8.71748 32.5752 7.62998 32.5752 6.36035C32.5752 4.19458 34.3265 2.43563 36.4756 2.43555ZM0.767578 2.50293C2.28616 2.50293 4.37746 2.4194 5.87109 2.46094C7.8791 2.51073 8.6347 3.3822 8.66797 5.54785C8.69273 6.76177 8.66821 10.236 8.66797 10.2695H6.49316C6.49317 7.20807 6.50971 6.70162 6.49316 5.73926C6.46828 4.89288 6.22782 4.48588 5.57227 4.41113C4.87519 4.32816 2.94141 4.39453 2.94141 4.39453V10.2695H0.767578V2.50293ZM15.9277 4.29395C14.7992 4.29395 13.8867 5.2156 13.8867 6.35254C13.8869 7.48918 14.7994 8.41015 15.9277 8.41016C17.0562 8.41016 17.9685 7.4975 17.9688 6.35254C17.9688 5.2156 17.0563 4.29395 15.9277 4.29395ZM27.2139 1.71387V3.89648H29.3057V5.80469H27.2139V8.07031H25.1816V5.80469H23.0898V3.89648H25.1816V1.71387H27.2139ZM36.4678 4.04492C35.3641 4.04492 34.7167 4.72557 34.501 5.64648H38.4258C38.2266 4.77538 37.6209 4.04503 36.4678 4.04492Z" fill="#27272A"/>
</svg>
