<svg width="17" height="16" viewBox="0 0 17 16" fill="none" xmlns="http://www.w3.org/2000/svg">
<g clip-path="url(#clip0_1082_1428)">
<path d="M10.8095 2.33301C10.8095 1.78072 10.3618 1.33301 9.80953 1.33301C9.25725 1.33301 8.80953 1.78072 8.80953 2.33301V5.66634C8.80953 6.21863 9.25725 6.66634 9.80953 6.66634C10.3618 6.66634 10.8095 6.21863 10.8095 5.66634V2.33301Z" stroke="#27272A" stroke-width="1.5" stroke-linecap="round" stroke-linejoin="round"/>
<path d="M12.8095 5.66634V6.66634H13.8095C14.0073 6.66634 14.2006 6.60769 14.3651 6.49781C14.5295 6.38793 14.6577 6.23175 14.7334 6.04902C14.8091 5.8663 14.8289 5.66523 14.7903 5.47125C14.7517 5.27727 14.6565 5.09909 14.5166 4.95923C14.3768 4.81938 14.1986 4.72414 14.0046 4.68556C13.8106 4.64697 13.6096 4.66677 13.4268 4.74246C13.2441 4.81815 13.0879 4.94632 12.9781 5.11077C12.8682 5.27522 12.8095 5.46856 12.8095 5.66634Z" stroke="#27272A" stroke-width="1.5" stroke-linecap="round" stroke-linejoin="round"/>
<path d="M7.4762 10.333C7.4762 9.78072 7.02848 9.33301 6.4762 9.33301C5.92391 9.33301 5.4762 9.78072 5.4762 10.333V13.6663C5.4762 14.2186 5.92391 14.6663 6.4762 14.6663C7.02848 14.6663 7.4762 14.2186 7.4762 13.6663V10.333Z" stroke="#27272A" stroke-width="1.5" stroke-linecap="round" stroke-linejoin="round"/>
<path d="M3.4762 10.333V9.33301H2.4762C2.27842 9.33301 2.08508 9.39166 1.92063 9.50154C1.75618 9.61142 1.628 9.7676 1.55232 9.95032C1.47663 10.1331 1.45683 10.3341 1.49541 10.5281C1.534 10.7221 1.62924 10.9003 1.76909 11.0401C1.90894 11.18 2.08713 11.2752 2.28111 11.3138C2.47509 11.3524 2.67615 11.3326 2.85888 11.2569C3.04161 11.1812 3.19778 11.053 3.30767 10.8886C3.41755 10.7241 3.4762 10.5308 3.4762 10.333Z" stroke="#27272A" stroke-width="1.5" stroke-linecap="round" stroke-linejoin="round"/>
<path d="M13.8095 8.66634H10.4762C9.92391 8.66634 9.4762 9.11406 9.4762 9.66634C9.4762 10.2186 9.92391 10.6663 10.4762 10.6663H13.8095C14.3618 10.6663 14.8095 10.2186 14.8095 9.66634C14.8095 9.11406 14.3618 8.66634 13.8095 8.66634Z" stroke="#27272A" stroke-width="1.5" stroke-linecap="round" stroke-linejoin="round"/>
<path d="M10.4762 12.6663H9.4762V13.6663C9.4762 13.8641 9.53485 14.0575 9.64473 14.2219C9.75461 14.3864 9.91079 14.5145 10.0935 14.5902C10.2762 14.6659 10.4773 14.6857 10.6713 14.6471C10.8653 14.6085 11.0435 14.5133 11.1833 14.3734C11.3232 14.2336 11.4184 14.0554 11.457 13.8614C11.4956 13.6674 11.4758 13.4664 11.4001 13.2837C11.3244 13.1009 11.1962 12.9448 11.0318 12.8349C10.8673 12.725 10.674 12.6663 10.4762 12.6663Z" stroke="#27272A" stroke-width="1.5" stroke-linecap="round" stroke-linejoin="round"/>
<path d="M5.80953 5.33301H2.4762C1.92391 5.33301 1.4762 5.78072 1.4762 6.33301C1.4762 6.88529 1.92391 7.33301 2.4762 7.33301H5.80953C6.36181 7.33301 6.80953 6.88529 6.80953 6.33301C6.80953 5.78072 6.36181 5.33301 5.80953 5.33301Z" stroke="#27272A" stroke-width="1.5" stroke-linecap="round" stroke-linejoin="round"/>
<path d="M5.80953 3.33301H6.80953V2.33301C6.80953 2.13523 6.75088 1.94189 6.641 1.77744C6.53112 1.61299 6.37494 1.48482 6.19221 1.40913C6.00949 1.33344 5.80842 1.31364 5.61444 1.35222C5.42046 1.39081 5.24228 1.48605 5.10242 1.6259C4.96257 1.76575 4.86733 1.94394 4.82874 2.13792C4.79016 2.3319 4.80996 2.53297 4.88565 2.71569C4.96134 2.89842 5.08951 3.0546 5.25396 3.16448C5.41841 3.27436 5.61175 3.33301 5.80953 3.33301Z" stroke="#27272A" stroke-width="1.5" stroke-linecap="round" stroke-linejoin="round"/>
</g>
<defs>
<clipPath id="clip0_1082_1428">
<rect width="16" height="16" fill="white" transform="translate(0.142822)"/>
</clipPath>
</defs>
</svg>
