<svg width="24" height="24" viewBox="0 0 24 24" fill="none" xmlns="http://www.w3.org/2000/svg">
<path d="M3 11C4.10457 11 5 10.1046 5 9C5 7.89543 4.10457 7 3 7C1.89543 7 1 7.89543 1 9C1 10.1046 1.89543 11 3 11Z" fill="black"/>
<path d="M9 5C10.1046 5 11 4.10457 11 3C11 1.89543 10.1046 1 9 1C7.89543 1 7 1.89543 7 3C7 4.10457 7.89543 5 9 5Z" fill="black"/>
<path d="M15 11C16.1046 11 17 10.1046 17 9C17 7.89543 16.1046 7 15 7C13.8954 7 13 7.89543 13 9C13 10.1046 13.8954 11 15 11Z" fill="black"/>
<path d="M21 5C22.1046 5 23 4.10457 23 3C23 1.89543 22.1046 1 21 1C19.8954 1 19 1.89543 19 3C19 4.10457 19.8954 5 21 5Z" fill="black"/>
<path d="M3 23C4.10457 23 5 22.1046 5 21C5 19.8954 4.10457 19 3 19C1.89543 19 1 19.8954 1 21C1 22.1046 1.89543 23 3 23Z" fill="black"/>
<path d="M9 17C10.1046 17 11 16.1046 11 15C11 13.8954 10.1046 13 9 13C7.89543 13 7 13.8954 7 15C7 16.1046 7.89543 17 9 17Z" fill="black"/>
<path d="M15 23C16.1046 23 17 22.1046 17 21C17 19.8954 16.1046 19 15 19C13.8954 19 13 19.8954 13 21C13 22.1046 13.8954 23 15 23Z" fill="black"/>
<path d="M21 17C22.1046 17 23 16.1046 23 15C23 13.8954 22.1046 13 21 13C19.8954 13 19 13.8954 19 15C19 16.1046 19.8954 17 21 17Z" fill="black"/>
</svg>
