<svg width="24" height="24" viewBox="0 0 24 24" fill="none" xmlns="http://www.w3.org/2000/svg">
<path d="M3.5 11C4.88071 11 6 9.88071 6 8.5C6 7.11929 4.88071 6 3.5 6C2.11929 6 1 7.11929 1 8.5C1 9.88071 2.11929 11 3.5 11Z" fill="black"/>
<path d="M20.5 6C21.8807 6 23 4.88071 23 3.5C23 2.11929 21.8807 1 20.5 1C19.1193 1 18 2.11929 18 3.5C18 4.88071 19.1193 6 20.5 6Z" fill="black"/>
<path d="M14.5 23C15.8807 23 17 21.8807 17 20.5C17 19.1193 15.8807 18 14.5 18C13.1193 18 12 19.1193 12 20.5C12 21.8807 13.1193 23 14.5 23Z" fill="black"/>
</svg>
