<svg width="240" height="27" viewBox="0 0 240 27" fill="none" xmlns="http://www.w3.org/2000/svg">
<path d="M51.9628 2.56445H58.0946V5.07324H51.9628V6.77344H57.5936V14.6055H50.2343C50.7731 14.9957 51.3125 15.4329 51.8514 15.916C52.4088 16.3805 52.9202 16.8539 53.3846 17.3369C53.1431 17.5784 52.8362 17.9038 52.4647 18.3125C52.0931 18.7027 51.7951 19.065 51.5721 19.3994C51.1262 18.8235 50.5505 18.2195 49.8446 17.5879V21.7129C49.8446 21.9545 49.8816 22.1132 49.9559 22.1875C50.0489 22.2617 50.2439 22.2988 50.5409 22.2988H51.2938C51.5538 22.2988 51.7487 22.2705 51.8788 22.2148C52.0274 22.1405 52.1482 21.9545 52.2411 21.6572C52.334 21.3599 52.4178 20.8768 52.4921 20.208C52.7894 20.3567 53.2169 20.5242 53.7743 20.71C54.3318 20.8958 54.8059 21.035 55.1962 21.1279C55.0661 22.28 54.8616 23.1534 54.5829 23.748C54.3227 24.3427 53.9508 24.7331 53.4677 24.9189C53.0031 25.1233 52.3896 25.2256 51.6278 25.2256H49.4266C48.5721 25.2256 47.9585 25.0862 47.5868 24.8076C47.2152 24.5289 47.0293 24.0457 47.0292 23.3584V17.1143H49.3143C49.0729 16.91 48.8223 16.715 48.5624 16.5293C48.3208 16.3249 48.0881 16.1574 47.8651 16.0273L49.0634 14.6055H43.3495V6.77344H48.785V5.07324H42.9315V3.7627H41.9559V22.6885C42.216 22.224 42.4761 21.6668 42.7362 21.0166C42.9964 20.3662 43.2291 19.7061 43.4335 19.0371C43.6563 18.3499 43.8142 17.7369 43.9071 17.1982L46.4999 17.7549C46.3326 18.8327 46.0347 19.9387 45.6073 21.0723C45.1985 22.2057 44.734 23.2184 44.2137 24.1104C43.9164 23.9431 43.5629 23.7571 43.1542 23.5527C42.7455 23.367 42.346 23.2189 41.9559 23.1074V25.5322H39.1962V20.4033C38.7132 20.5705 38.1188 20.7751 37.413 21.0166C36.7068 21.2396 36 21.4626 35.2938 21.6855C34.6065 21.8899 34.0122 22.0575 33.5106 22.1875L32.7577 19.2324C32.9621 19.1953 33.2036 19.1485 33.4823 19.0928C33.7794 19.0371 34.0768 18.9727 34.3739 18.8984V3.7627H33.0087V1.11426H43.3778V2.56445H48.785V0.166992H51.9628V2.56445ZM15.8856 3.81836H25.3905V6.68945H6.18542V11.9854C6.18542 14.8099 5.92546 17.319 5.40515 19.5117C4.90342 21.6858 4.11377 23.6741 3.03601 25.4766C2.60866 25.1607 2.1071 24.8539 1.53113 24.5566C0.973673 24.2593 0.462473 24.0364 -0.0020752 23.8877C1.05704 22.4383 1.80976 20.7196 2.25574 18.7314C2.7203 16.7431 2.95203 14.494 2.95203 11.9854V3.81836H12.4012V0H15.8856V3.81836ZM16.6385 8.86426C16.4713 9.58887 16.2298 10.4528 15.9139 11.4561C15.5981 12.4408 15.2446 13.4906 14.8544 14.6055C14.4642 15.7203 14.0552 16.8168 13.6278 17.8945C13.219 18.9537 12.8286 19.9206 12.4569 20.7939C13.832 20.6081 15.1893 20.4222 16.5272 20.2363C17.8651 20.0319 19.0453 19.8372 20.0673 19.6514C19.547 18.7781 19.0172 17.9415 18.4784 17.1426C17.9582 16.3251 17.4468 15.619 16.9452 15.0244L19.5927 13.4355C20.1315 14.0673 20.708 14.8288 21.3212 15.7207C21.953 16.5941 22.5664 17.5142 23.161 18.4805C23.7556 19.4281 24.3039 20.3571 24.8055 21.2676C25.3073 22.1595 25.7162 22.9589 26.0321 23.665C25.7719 23.7765 25.437 23.9245 25.0282 24.1104C24.638 24.3147 24.2572 24.5193 23.8856 24.7236C23.514 24.9466 23.217 25.1423 22.994 25.3096C22.8082 24.8636 22.5852 24.3709 22.3251 23.832C22.0649 23.3118 21.7767 22.7635 21.4608 22.1875C20.6618 22.3733 19.7417 22.5681 18.701 22.7725C17.6604 22.9769 16.5641 23.1813 15.412 23.3857C14.2785 23.5716 13.1451 23.7488 12.0116 23.916C10.8966 24.1018 9.84608 24.2596 8.86121 24.3896C7.89513 24.5383 7.06817 24.6493 6.38074 24.7236L5.71179 21.4902C6.12061 21.4531 6.59477 21.4161 7.13367 21.3789C7.69109 21.3417 8.28611 21.2862 8.91785 21.2119C9.23373 20.543 9.55897 19.762 9.89343 18.8701C10.2464 17.9598 10.5903 17.0032 10.9247 16C11.2778 14.9965 11.6117 14.0015 11.9276 13.0166C12.2434 12.032 12.5133 11.1124 12.7362 10.2578C12.9778 9.40308 13.154 8.68736 13.2655 8.11133L16.6385 8.86426ZM87.4989 24.6523H83.6102L81.3632 18.6514H71.954L69.7069 24.6523H65.8846L75.1962 0.77832H78.1884L87.4989 24.6523ZM97.285 24.6523H93.83V0.77832H97.285V24.6523ZM69.5653 24.4512H69.5673L71.8134 18.4492H71.8124L69.5653 24.4512ZM87.202 24.4512H87.204L78.0497 0.980469H78.0487L87.202 24.4512ZM97.0819 24.4512H97.0829V0.980469H97.0819V24.4512ZM55.6425 16.5293C56.1255 17.0681 56.5902 17.672 57.036 18.3408C57.5005 18.9911 57.9281 19.6505 58.3182 20.3193C58.7085 20.9883 59.0337 21.5929 59.2938 22.1318C58.9593 22.2805 58.5407 22.5122 58.0389 22.8281C57.556 23.1439 57.1848 23.4138 56.9247 23.6367C56.6832 23.0608 56.3763 22.4383 56.0048 21.7695C55.6332 21.0821 55.2241 20.4129 54.7782 19.7627C54.3323 19.1124 53.8862 18.5359 53.4403 18.0342L55.6425 16.5293ZM37.162 18.2295C37.5335 18.1366 37.8862 18.0431 38.2206 17.9502C38.5735 17.8387 38.8989 17.7462 39.1962 17.6719V15.0518H37.162V18.2295ZM72.8514 15.5654H72.8534L76.7069 5.375V5.37305L72.8514 15.5654ZM73.1454 15.3633H80.1747L76.7059 5.9502L73.1454 15.3633ZM37.162 12.3477H39.1962V9.33789H37.162V12.3477ZM46.0809 12.1523H47.4471V9.22559H46.0809V12.1523ZM49.7889 12.1523H51.0985V9.22559H49.7889V12.1523ZM53.4677 12.1523H54.8895V9.22559H53.4677V12.1523ZM37.162 6.63379H39.1962V3.7627H37.162V6.63379Z" fill="#27272A"/>
<path d="M107.65 3.35059V2.8916C107.65 2.27962 107.774 1.79785 108.021 1.44629C108.376 0.948242 108.892 0.699219 109.569 0.699219C110.051 0.699219 110.507 0.829427 110.937 1.08984L110.58 1.72949C110.277 1.54395 109.965 1.45117 109.643 1.45117C109.177 1.45117 108.853 1.66439 108.671 2.09082C108.59 2.28613 108.549 2.5498 108.549 2.88184V3.35059H110.487V4.04883H108.549V9.24902H107.65V4.04883H106.142V3.35059H107.65ZM113.072 4.98145H113.112C113.525 3.7998 114.165 3.20898 115.03 3.20898C115.301 3.20898 115.551 3.2627 115.782 3.37012L115.499 4.20996C115.33 4.13509 115.131 4.09766 114.904 4.09766C114.077 4.09766 113.496 4.78776 113.16 6.16797V9.24902H112.242V3.35059H113.121L113.072 4.98145ZM119.515 3.19922C120.319 3.19922 120.999 3.47266 121.556 4.01953C122.145 4.5957 122.44 5.35417 122.44 6.29492C122.44 6.84505 122.339 7.33984 122.137 7.7793C121.877 8.34245 121.481 8.76888 120.951 9.05859C120.511 9.29948 120.026 9.41992 119.496 9.41992C118.538 9.41992 117.78 9.06673 117.22 8.36035C116.781 7.80697 116.561 7.11849 116.561 6.29492C116.561 5.2207 116.935 4.39225 117.684 3.80957C118.208 3.40267 118.818 3.19922 119.515 3.19922ZM119.491 3.95117C118.895 3.95117 118.403 4.19857 118.016 4.69336C117.681 5.11979 117.513 5.65853 117.513 6.30957C117.513 6.77181 117.599 7.18034 117.772 7.53516C117.935 7.87695 118.164 8.14551 118.46 8.34082C118.773 8.5459 119.121 8.64844 119.505 8.64844C119.971 8.64844 120.381 8.49707 120.736 8.19434C121.237 7.76139 121.488 7.13151 121.488 6.30469C121.488 5.60482 121.294 5.03516 120.907 4.5957C120.526 4.16602 120.054 3.95117 119.491 3.95117ZM124.869 3.35059V4.37109C125.041 3.98372 125.313 3.68424 125.684 3.47266C125.958 3.31641 126.234 3.23828 126.514 3.23828C127.344 3.23828 127.888 3.64844 128.145 4.46875C128.292 4.14648 128.477 3.8877 128.702 3.69238C129.053 3.38965 129.452 3.23828 129.898 3.23828C130.53 3.23828 131.023 3.49219 131.378 4C131.612 4.33854 131.729 4.84473 131.729 5.51855V9.24902H130.84V5.53809C130.84 5.04655 130.744 4.6722 130.552 4.41504C130.351 4.14486 130.075 4.00977 129.727 4.00977C129.405 4.00977 129.104 4.15788 128.824 4.4541C128.573 4.71452 128.404 5.03353 128.316 5.41113V9.24902H127.437V5.48926C127.437 5.05306 127.349 4.70964 127.173 4.45898C126.962 4.15951 126.682 4.00977 126.334 4.00977C125.985 4.00977 125.668 4.18555 125.381 4.53711C125.163 4.80078 125.005 5.13118 124.908 5.52832V9.24902H124.009V3.35059H124.869Z" fill="#71717A"/>
<path d="M106.586 19.1348H116.752V19.9961H112.357C112.291 21.6328 112.027 22.8398 111.566 23.6172C111.086 24.4258 110.242 25.0859 109.035 25.5977L108.42 24.8301C109.65 24.3457 110.471 23.6758 110.881 22.8203C111.174 22.2148 111.342 21.2734 111.385 19.9961H106.586V19.1348ZM107.869 15.9062H114.385V16.7559H107.869V15.9062ZM115.609 17.2363C115.355 16.502 115.055 15.8535 114.707 15.291L115.428 15.0742C115.791 15.6406 116.096 16.2812 116.342 16.9961L115.609 17.2363ZM117.051 16.791C116.828 16.0996 116.527 15.4512 116.148 14.8457L116.846 14.6465C117.244 15.2363 117.553 15.8672 117.771 16.5391L117.051 16.791ZM123.198 17.5938C122.226 17.1406 121.157 16.7461 119.993 16.4102L120.292 15.5664C121.495 15.8594 122.568 16.2402 123.509 16.709L123.198 17.5938ZM121.962 20.582C121.111 20.2031 120.05 19.8086 118.78 19.3984L119.138 18.5195C120.306 18.8438 121.366 19.2363 122.32 19.6973L121.962 20.582ZM119.548 24.2676C121.154 24.1309 122.4 23.8867 123.286 23.5352C124.423 23.0859 125.353 22.3672 126.075 21.3789C126.759 20.4492 127.232 19.3359 127.493 18.0391L128.355 18.5547C127.851 20.7227 126.902 22.3418 125.507 23.4121C124.609 24.1035 123.495 24.5938 122.167 24.8828C121.523 25.0273 120.741 25.1387 119.823 25.2168L119.548 24.2676ZM126.474 17.418C126.224 16.793 125.872 16.1523 125.419 15.4961L126.134 15.2207C126.583 15.8535 126.937 16.4902 127.195 17.1309L126.474 17.418ZM128.021 16.9727C127.728 16.2539 127.38 15.6133 126.978 15.0508L127.675 14.7988C128.085 15.3301 128.437 15.9551 128.73 16.6738L128.021 16.9727ZM138.92 16.4922L139.571 17.0547C139.055 19.4688 138.188 21.3477 136.969 22.6914C136.321 23.4062 135.489 24.041 134.473 24.5957C133.723 25.0059 132.914 25.332 132.047 25.5742L131.555 24.7363C133.614 24.1582 135.194 23.2539 136.295 22.0234C135.276 21.0898 134.227 20.3047 133.149 19.668L133.705 18.9883C134.873 19.6523 135.928 20.4121 136.87 21.2676C137.705 20.002 138.246 18.6934 138.493 17.3418H134.168C133.278 18.7598 132.204 19.8633 130.946 20.6523L130.307 19.9844C130.975 19.5898 131.58 19.1074 132.123 18.5371C133.104 17.5176 133.795 16.3887 134.198 15.1504L135.118 15.3906L135.1 15.4316C134.932 15.8535 134.778 16.207 134.637 16.4922H138.92ZM143.755 15.8184H144.705V17.8691C144.705 19.123 144.66 20.084 144.57 20.752C144.453 21.5957 144.257 22.293 143.984 22.8438C143.515 23.7969 142.802 24.5801 141.845 25.1934L141.201 24.4492C142.263 23.7188 142.966 22.8574 143.31 21.8652C143.607 21.0176 143.755 19.6973 143.755 17.9043V15.8184ZM146.673 15.4844H147.623V24.0156C148.455 23.625 149.177 23.0801 149.791 22.3809C150.525 21.541 151.062 20.5254 151.402 19.334L152.134 20.0781C151.705 21.3477 151.097 22.4062 150.312 23.2539C149.55 24.0703 148.574 24.7363 147.382 25.252L146.673 24.6426V15.4844ZM159.589 18.6426C159.647 19.2676 159.731 19.8555 159.841 20.4062L164.27 20.2832L164.305 21.1152L160.034 21.2324C160.327 22.2637 160.827 23.1582 161.534 23.916C161.893 24.3027 162.237 24.5879 162.565 24.7715C162.737 24.8691 162.866 24.918 162.952 24.918C163.206 24.918 163.401 24.2539 163.538 22.9258L164.452 23.4883C164.339 24.3281 164.184 24.9629 163.989 25.3926C163.802 25.8145 163.538 26.0254 163.198 26.0254C162.929 26.0254 162.561 25.8926 162.096 25.627C161.096 25.0566 160.292 24.1719 159.682 22.9727C159.413 22.4375 159.202 21.8652 159.05 21.2559L155.376 21.3496V24.7129C156.876 24.3809 158.196 24.0293 159.337 23.6582L159.43 24.4727C157.677 25.1016 155.753 25.625 153.659 26.043L153.313 25.1055C153.61 25.0547 153.97 24.9902 154.391 24.9121V15.3496H163.216V18.6426H159.589ZM158.639 18.6426H155.376V20.5234L158.862 20.4297C158.761 19.8711 158.686 19.2754 158.639 18.6426ZM162.255 16.1289H155.376V17.8867H162.255V16.1289ZM171.555 17.8574V20.752H175.656V21.5781H171.555V24.8008H176.811V25.6387H165.408V24.8008H170.582V21.5781H166.539V20.752H170.582V17.8574H165.994V17.0312H176.23V17.8574H171.555ZM171.525 16.9961C170.666 16.3789 169.703 15.8027 168.637 15.2676L169.246 14.6699C170.215 15.0762 171.203 15.6348 172.211 16.3457L171.525 16.9961ZM183.855 17.8574V20.752H187.956V21.5781H183.855V24.8008H189.111V25.6387H177.708V24.8008H182.882V21.5781H178.839V20.752H182.882V17.8574H178.294V17.0312H188.53V17.8574H183.855ZM183.825 16.9961C182.966 16.3789 182.003 15.8027 180.937 15.2676L181.546 14.6699C182.515 15.0762 183.503 15.6348 184.511 16.3457L183.825 16.9961ZM198.334 23.3184C198.866 22.9512 199.33 22.6055 199.729 22.2812L200.362 22.8086C199.776 23.2656 199.223 23.668 198.704 24.0156C198.961 24.4102 199.268 24.7129 199.623 24.9238C199.807 25.0332 199.938 25.0879 200.016 25.0879C200.219 25.0879 200.371 24.5801 200.473 23.5645L201.287 24.0508C201.143 25.4336 200.795 26.125 200.245 26.125C200.061 26.125 199.813 26.0469 199.5 25.8906C198.911 25.5938 198.401 25.123 197.971 24.4785C197.221 24.9629 196.346 25.4082 195.346 25.8145L194.807 25.1172C195.717 24.8008 196.643 24.3594 197.584 23.793C197.354 23.3086 197.168 22.7559 197.028 22.1348H194.028V22.9844C194.672 22.9336 195.467 22.8496 196.412 22.7324V23.3828C195.713 23.4961 194.961 23.5996 194.157 23.6934L194.028 23.7109V25.3457C194.028 25.6738 193.926 25.8965 193.723 26.0137C193.575 26.0996 193.348 26.1426 193.043 26.1426C192.586 26.1426 192.098 26.1133 191.579 26.0547L191.42 25.2637C192.123 25.334 192.584 25.3691 192.803 25.3691C192.948 25.3691 193.039 25.3379 193.079 25.2754C193.102 25.2324 193.114 25.1641 193.114 25.0703V23.8105C192.161 23.9043 191.252 23.9766 190.389 24.0273L190.161 23.248C191.219 23.2051 192.204 23.1445 193.114 23.0664V22.1348H190.008V21.4258H193.114V20.752C192.364 20.8262 191.62 20.8789 190.881 20.9102L190.582 20.2598C192.399 20.1895 194.012 20.002 195.422 19.6973L195.897 20.3359C195.245 20.4727 194.621 20.5762 194.028 20.6465V21.4258H196.893C196.811 20.9414 196.752 20.3965 196.717 19.791H197.614C197.672 20.4395 197.737 20.9844 197.807 21.4258H201.405V22.1348H197.918C198.028 22.541 198.166 22.9355 198.334 23.3184ZM193.301 15.748C193.125 15.4395 192.94 15.168 192.745 14.9336L193.717 14.6934C193.916 14.9629 194.121 15.3145 194.332 15.748H197.016C197.274 15.3496 197.465 14.998 197.59 14.6934L198.621 14.8984C198.422 15.2148 198.235 15.498 198.059 15.748H201.047V16.457H196.125V17.2363H200.391V17.9102H196.125V18.7363H201.387V19.457H190.032V18.7363H195.205V17.9102H191.028V17.2363H195.205V16.457H190.366V15.748H193.301ZM199.647 21.4023C199.194 20.8555 198.756 20.4316 198.334 20.1309L198.973 19.6621C199.418 19.9707 199.866 20.373 200.315 20.8691L199.647 21.4023ZM203.175 25.2988V24.3262C203.543 23.0332 204.543 21.834 206.175 20.7285L206.509 20.5C207.232 20.0117 207.714 19.6465 207.957 19.4043C208.394 18.9746 208.613 18.5059 208.613 17.998C208.613 17.5215 208.433 17.1328 208.074 16.832C207.691 16.5078 207.189 16.3457 206.568 16.3457C205.611 16.3457 204.763 16.7656 204.025 17.6055L203.269 16.9492C204.097 15.9141 205.199 15.3965 206.574 15.3965C207.336 15.3965 207.992 15.5586 208.543 15.8828C209.39 16.3789 209.814 17.0996 209.814 18.0449C209.814 18.7168 209.546 19.3145 209.011 19.8379C208.754 20.0879 208.23 20.4863 207.441 21.0332L207.242 21.1738L206.826 21.4609C205.349 22.4727 204.513 23.4121 204.318 24.2793H209.943V25.2988H203.175ZM215.997 15.3906C217.126 15.3906 218.012 15.8652 218.657 16.8145C219.262 17.7051 219.565 18.9121 219.565 20.4355C219.565 21.8418 219.309 22.9824 218.798 23.8574C218.153 24.9629 217.216 25.5156 215.985 25.5156C214.829 25.5156 213.929 25.0195 213.284 24.0273C212.702 23.1328 212.411 21.9355 212.411 20.4355C212.411 18.8652 212.733 17.6289 213.378 16.7266C214.018 15.8359 214.891 15.3906 215.997 15.3906ZM215.979 16.3281C215.21 16.3281 214.612 16.7324 214.186 17.541C213.804 18.2637 213.612 19.2324 213.612 20.4473C213.612 21.5684 213.776 22.4805 214.104 23.1836C214.534 24.0977 215.163 24.5547 215.991 24.5547C216.745 24.5547 217.335 24.166 217.761 23.3887C218.163 22.6621 218.364 21.6836 218.364 20.4531C218.364 19.1562 218.147 18.1406 217.714 17.4062C217.292 16.6875 216.714 16.3281 215.979 16.3281ZM223.756 19.7207H224.512C225.258 19.7207 225.857 19.6016 226.311 19.3633C226.412 19.3086 226.508 19.2441 226.598 19.1699C226.992 18.8379 227.189 18.4258 227.189 17.9336C227.189 17.418 226.982 17.0137 226.568 16.7207C226.189 16.459 225.703 16.3281 225.109 16.3281C224.219 16.3281 223.4 16.6797 222.654 17.3828L221.969 16.6504C222.281 16.3457 222.637 16.0957 223.035 15.9004C223.707 15.5684 224.416 15.4023 225.162 15.4023C225.928 15.4023 226.59 15.5566 227.148 15.8652C227.969 16.3184 228.379 16.9766 228.379 17.8398C228.379 18.4961 228.139 19.0449 227.658 19.4863C227.287 19.834 226.752 20.0527 226.053 20.1426V20.1895C226.881 20.2754 227.523 20.5195 227.98 20.9219C228.477 21.3633 228.725 21.9531 228.725 22.6914C228.725 23.6211 228.357 24.3379 227.623 24.8418C226.99 25.2754 226.158 25.4922 225.127 25.4922C223.697 25.4922 222.537 25.0352 221.646 24.1211L222.344 23.3828C222.598 23.6484 222.881 23.8652 223.193 24.0332C223.799 24.3652 224.443 24.5312 225.127 24.5312C225.896 24.5312 226.5 24.3555 226.938 24.0039C227.328 23.6875 227.523 23.2441 227.523 22.6738C227.523 21.3145 226.512 20.6348 224.488 20.6348H223.756V19.7207ZM234.831 15.3906C235.96 15.3906 236.847 15.8652 237.491 16.8145C238.097 17.7051 238.4 18.9121 238.4 20.4355C238.4 21.8418 238.144 22.9824 237.632 23.8574C236.988 24.9629 236.05 25.5156 234.82 25.5156C233.663 25.5156 232.763 25.0195 232.118 24.0273C231.536 23.1328 231.245 21.9355 231.245 20.4355C231.245 18.8652 231.568 17.6289 232.212 16.7266C232.853 15.8359 233.726 15.3906 234.831 15.3906ZM234.814 16.3281C234.044 16.3281 233.446 16.7324 233.021 17.541C232.638 18.2637 232.446 19.2324 232.446 20.4473C232.446 21.5684 232.611 22.4805 232.939 23.1836C233.368 24.0977 233.997 24.5547 234.825 24.5547C235.579 24.5547 236.169 24.166 236.595 23.3887C236.997 22.6621 237.198 21.6836 237.198 20.4531C237.198 19.1562 236.982 18.1406 236.548 17.4062C236.126 16.6875 235.548 16.3281 234.814 16.3281Z" fill="#71717A"/>
</svg>
