<svg width="271" height="26" viewBox="0 0 271 26" fill="none" xmlns="http://www.w3.org/2000/svg">
<g clip-path="url(#clip0_1909_7304)">
<path d="M51.9628 2.56445H58.0946V5.07324H51.9628V6.77344H57.5937V14.6055H50.2343C50.7732 14.9957 51.3126 15.4329 51.8515 15.916C52.4088 16.3805 52.9202 16.8539 53.3847 17.3369C53.1432 17.5784 52.8363 17.9038 52.4648 18.3125C52.0932 18.7027 51.7952 19.065 51.5722 19.3994C51.1263 18.8235 50.5506 18.2195 49.8446 17.5879V21.7129C49.8446 21.9545 49.8816 22.1132 49.956 22.1875C50.0489 22.2617 50.244 22.2988 50.5409 22.2988H51.2939C51.5539 22.2988 51.7488 22.2705 51.8788 22.2148C52.0275 22.1405 52.1482 21.9545 52.2411 21.6572C52.334 21.3599 52.4178 20.8768 52.4921 20.208C52.7894 20.3567 53.2169 20.5242 53.7743 20.71C54.3318 20.8958 54.806 21.035 55.1962 21.1279C55.0661 22.28 54.8616 23.1534 54.5829 23.748C54.3228 24.3427 53.9508 24.7331 53.4677 24.9189C53.0031 25.1233 52.3896 25.2256 51.6278 25.2256H49.4267C48.5721 25.2256 47.9585 25.0862 47.5868 24.8076C47.2153 24.5289 47.0293 24.0457 47.0292 23.3584V17.1143H49.3144C49.073 16.91 48.8224 16.715 48.5624 16.5293C48.3208 16.3249 48.0881 16.1574 47.8651 16.0273L49.0634 14.6055H43.3495V6.77344H48.7851V5.07324H42.9315V3.7627H41.956V22.6885C42.216 22.224 42.4762 21.6668 42.7362 21.0166C42.9964 20.3662 43.2291 19.7061 43.4335 19.0371C43.6564 18.3499 43.8142 17.7369 43.9071 17.1982L46.4999 17.7549C46.3327 18.8327 46.0347 19.9387 45.6073 21.0723C45.1985 22.2057 44.7341 23.2184 44.2138 24.1104C43.9165 23.9431 43.563 23.7571 43.1542 23.5527C42.7456 23.367 42.346 23.2189 41.956 23.1074V25.5322H39.1962V20.4033C38.7132 20.5705 38.1188 20.7751 37.413 21.0166C36.7069 21.2396 36 21.4626 35.2939 21.6855C34.6066 21.8899 34.0122 22.0575 33.5107 22.1875L32.7577 19.2324C32.9621 19.1953 33.2036 19.1485 33.4823 19.0928C33.7795 19.0371 34.0768 18.9727 34.3739 18.8984V3.7627H33.0087V1.11426H43.3778V2.56445H48.7851V0.166992H51.9628V2.56445ZM15.8857 3.81836H25.3905V6.68945H6.18546V11.9854C6.18546 14.8099 5.92549 17.319 5.40518 19.5117C4.90345 21.6858 4.1138 23.6741 3.03604 25.4766C2.60869 25.1607 2.10713 24.8539 1.53116 24.5566C0.973704 24.2593 0.462504 24.0364 -0.00204468 23.8877C1.05707 22.4383 1.80979 20.7196 2.25577 18.7314C2.72033 16.7431 2.95206 14.494 2.95206 11.9854V3.81836H12.4013V0H15.8857V3.81836ZM16.6386 8.86426C16.4713 9.58887 16.2298 10.4528 15.914 11.4561C15.5981 12.4408 15.2446 13.4906 14.8544 14.6055C14.4642 15.7203 14.0552 16.8168 13.6278 17.8945C13.219 18.9537 12.8286 19.9206 12.4569 20.7939C13.832 20.6081 15.1893 20.4222 16.5273 20.2363C17.8651 20.0319 19.0453 19.8372 20.0673 19.6514C19.547 18.7781 19.0172 17.9415 18.4784 17.1426C17.9582 16.3251 17.4469 15.619 16.9452 15.0244L19.5927 13.4355C20.1315 14.0673 20.708 14.8288 21.3212 15.7207C21.953 16.5941 22.5664 17.5142 23.161 18.4805C23.7556 19.4281 24.3039 20.3571 24.8056 21.2676C25.3073 22.1595 25.7162 22.9589 26.0321 23.665C25.772 23.7765 25.437 23.9245 25.0282 24.1104C24.6381 24.3147 24.2572 24.5193 23.8857 24.7236C23.5141 24.9466 23.217 25.1423 22.994 25.3096C22.8082 24.8636 22.5852 24.3709 22.3251 23.832C22.065 23.3118 21.7767 22.7635 21.4608 22.1875C20.6618 22.3733 19.7417 22.5681 18.7011 22.7725C17.6605 22.9769 16.5641 23.1813 15.412 23.3857C14.2785 23.5716 13.1451 23.7488 12.0116 23.916C10.8967 24.1018 9.84611 24.2596 8.86124 24.3896C7.89516 24.5383 7.0682 24.6493 6.38077 24.7236L5.71182 21.4902C6.12064 21.4531 6.59481 21.4161 7.1337 21.3789C7.69112 21.3417 8.28614 21.2862 8.91788 21.2119C9.23376 20.543 9.559 19.762 9.89346 18.8701C10.2464 17.9598 10.5903 17.0032 10.9247 16C11.2778 14.9965 11.6117 14.0015 11.9276 13.0166C12.2435 12.032 12.5133 11.1124 12.7362 10.2578C12.9778 9.40308 13.154 8.68736 13.2655 8.11133L16.6386 8.86426ZM87.4989 24.6523H83.6103L81.3632 18.6514H71.954L69.7069 24.6523H65.8847L75.1962 0.77832H78.1884L87.4989 24.6523ZM97.2851 24.6523H93.83V0.77832H97.2851V24.6523ZM69.5653 24.4512H69.5673L71.8134 18.4492H71.8124L69.5653 24.4512ZM87.2021 24.4512H87.204L78.0497 0.980469H78.0487L87.2021 24.4512ZM97.0819 24.4512H97.0829V0.980469H97.0819V24.4512ZM55.6425 16.5293C56.1255 17.0681 56.5902 17.672 57.036 18.3408C57.5005 18.9911 57.9281 19.6505 58.3183 20.3193C58.7085 20.9883 59.0337 21.5929 59.2939 22.1318C58.9594 22.2805 58.5407 22.5122 58.039 22.8281C57.556 23.1439 57.1848 23.4138 56.9247 23.6367C56.6832 23.0608 56.3763 22.4383 56.0048 21.7695C55.6332 21.0821 55.2241 20.4129 54.7782 19.7627C54.3323 19.1124 53.8862 18.5359 53.4403 18.0342L55.6425 16.5293ZM37.162 18.2295C37.5335 18.1366 37.8863 18.0431 38.2206 17.9502C38.5735 17.8387 38.899 17.7462 39.1962 17.6719V15.0518H37.162V18.2295ZM72.8515 15.5654H72.8534L76.7069 5.375V5.37305L72.8515 15.5654ZM73.1454 15.3633H80.1747L76.706 5.9502L73.1454 15.3633ZM37.162 12.3477H39.1962V9.33789H37.162V12.3477ZM46.081 12.1523H47.4472V9.22559H46.081V12.1523ZM49.789 12.1523H51.0985V9.22559H49.789V12.1523ZM53.4677 12.1523H54.8896V9.22559H53.4677V12.1523ZM37.162 6.63379H39.1962V3.7627H37.162V6.63379Z" fill="#27272A"/>
<path d="M107.65 19.3506V18.8916C107.65 18.2796 107.774 17.7979 108.021 17.4463C108.376 16.9482 108.892 16.6992 109.569 16.6992C110.051 16.6992 110.507 16.8294 110.937 17.0898L110.58 17.7295C110.277 17.5439 109.965 17.4512 109.643 17.4512C109.177 17.4512 108.853 17.6644 108.671 18.0908C108.59 18.2861 108.549 18.5498 108.549 18.8818V19.3506H110.487V20.0488H108.549V25.249H107.65V20.0488H106.142V19.3506H107.65ZM113.072 20.9814H113.112C113.525 19.7998 114.165 19.209 115.03 19.209C115.301 19.209 115.551 19.2627 115.782 19.3701L115.499 20.21C115.33 20.1351 115.131 20.0977 114.904 20.0977C114.077 20.0977 113.496 20.7878 113.16 22.168V25.249H112.242V19.3506H113.121L113.072 20.9814ZM119.515 19.1992C120.319 19.1992 120.999 19.4727 121.556 20.0195C122.145 20.5957 122.44 21.3542 122.44 22.2949C122.44 22.8451 122.339 23.3398 122.137 23.7793C121.877 24.3424 121.481 24.7689 120.951 25.0586C120.511 25.2995 120.026 25.4199 119.496 25.4199C118.538 25.4199 117.78 25.0667 117.22 24.3604C116.781 23.807 116.561 23.1185 116.561 22.2949C116.561 21.2207 116.935 20.3923 117.684 19.8096C118.208 19.4027 118.818 19.1992 119.515 19.1992ZM119.491 19.9512C118.895 19.9512 118.403 20.1986 118.016 20.6934C117.681 21.1198 117.513 21.6585 117.513 22.3096C117.513 22.7718 117.599 23.1803 117.772 23.5352C117.935 23.877 118.164 24.1455 118.46 24.3408C118.773 24.5459 119.121 24.6484 119.505 24.6484C119.971 24.6484 120.381 24.4971 120.736 24.1943C121.237 23.7614 121.488 23.1315 121.488 22.3047C121.488 21.6048 121.294 21.0352 120.907 20.5957C120.526 20.166 120.054 19.9512 119.491 19.9512ZM124.869 19.3506V20.3711C125.041 19.9837 125.313 19.6842 125.684 19.4727C125.958 19.3164 126.234 19.2383 126.514 19.2383C127.344 19.2383 127.888 19.6484 128.145 20.4688C128.292 20.1465 128.477 19.8877 128.702 19.6924C129.053 19.3896 129.452 19.2383 129.898 19.2383C130.53 19.2383 131.023 19.4922 131.378 20C131.612 20.3385 131.729 20.8447 131.729 21.5186V25.249H130.84V21.5381C130.84 21.0465 130.744 20.6722 130.552 20.415C130.351 20.1449 130.075 20.0098 129.727 20.0098C129.405 20.0098 129.104 20.1579 128.824 20.4541C128.573 20.7145 128.404 21.0335 128.316 21.4111V25.249H127.437V21.4893C127.437 21.0531 127.349 20.7096 127.173 20.459C126.962 20.1595 126.682 20.0098 126.334 20.0098C125.985 20.0098 125.668 20.1855 125.381 20.5371C125.163 20.8008 125.005 21.1312 124.908 21.5283V25.249H124.009V19.3506H124.869Z" fill="#71717A"/>
<path d="M137.586 19.1348H147.752V19.9961H143.357C143.291 21.6328 143.027 22.8398 142.566 23.6172C142.086 24.4258 141.242 25.0859 140.035 25.5977L139.42 24.8301C140.65 24.3457 141.471 23.6758 141.881 22.8203C142.174 22.2148 142.342 21.2734 142.385 19.9961H137.586V19.1348ZM138.869 15.9062H145.385V16.7559H138.869V15.9062ZM146.609 17.2363C146.355 16.502 146.055 15.8535 145.707 15.291L146.428 15.0742C146.791 15.6406 147.096 16.2812 147.342 16.9961L146.609 17.2363ZM148.051 16.791C147.828 16.0996 147.527 15.4512 147.148 14.8457L147.846 14.6465C148.244 15.2363 148.553 15.8672 148.771 16.5391L148.051 16.791ZM154.198 17.5938C153.226 17.1406 152.157 16.7461 150.993 16.4102L151.292 15.5664C152.495 15.8594 153.568 16.2402 154.509 16.709L154.198 17.5938ZM152.962 20.582C152.111 20.2031 151.05 19.8086 149.78 19.3984L150.138 18.5195C151.306 18.8438 152.366 19.2363 153.32 19.6973L152.962 20.582ZM150.548 24.2676C152.154 24.1309 153.4 23.8867 154.286 23.5352C155.423 23.0859 156.353 22.3672 157.075 21.3789C157.759 20.4492 158.232 19.3359 158.493 18.0391L159.355 18.5547C158.851 20.7227 157.902 22.3418 156.507 23.4121C155.609 24.1035 154.495 24.5938 153.167 24.8828C152.523 25.0273 151.741 25.1387 150.823 25.2168L150.548 24.2676ZM157.474 17.418C157.224 16.793 156.872 16.1523 156.419 15.4961L157.134 15.2207C157.583 15.8535 157.937 16.4902 158.195 17.1309L157.474 17.418ZM159.021 16.9727C158.728 16.2539 158.38 15.6133 157.978 15.0508L158.675 14.7988C159.085 15.3301 159.437 15.9551 159.73 16.6738L159.021 16.9727ZM169.92 16.4922L170.571 17.0547C170.055 19.4688 169.188 21.3477 167.969 22.6914C167.321 23.4062 166.489 24.041 165.473 24.5957C164.723 25.0059 163.914 25.332 163.047 25.5742L162.555 24.7363C164.614 24.1582 166.194 23.2539 167.295 22.0234C166.276 21.0898 165.227 20.3047 164.149 19.668L164.705 18.9883C165.873 19.6523 166.928 20.4121 167.87 21.2676C168.705 20.002 169.246 18.6934 169.493 17.3418H165.168C164.278 18.7598 163.204 19.8633 161.946 20.6523L161.307 19.9844C161.975 19.5898 162.58 19.1074 163.123 18.5371C164.104 17.5176 164.795 16.3887 165.198 15.1504L166.118 15.3906L166.1 15.4316C165.932 15.8535 165.778 16.207 165.637 16.4922H169.92ZM174.755 15.8184H175.705V17.8691C175.705 19.123 175.66 20.084 175.57 20.752C175.453 21.5957 175.257 22.293 174.984 22.8438C174.515 23.7969 173.802 24.5801 172.845 25.1934L172.201 24.4492C173.263 23.7188 173.966 22.8574 174.31 21.8652C174.607 21.0176 174.755 19.6973 174.755 17.9043V15.8184ZM177.673 15.4844H178.623V24.0156C179.455 23.625 180.177 23.0801 180.791 22.3809C181.525 21.541 182.062 20.5254 182.402 19.334L183.134 20.0781C182.705 21.3477 182.097 22.4062 181.312 23.2539C180.55 24.0703 179.574 24.7363 178.382 25.252L177.673 24.6426V15.4844ZM190.589 18.6426C190.647 19.2676 190.731 19.8555 190.841 20.4062L195.27 20.2832L195.305 21.1152L191.034 21.2324C191.327 22.2637 191.827 23.1582 192.534 23.916C192.893 24.3027 193.237 24.5879 193.565 24.7715C193.737 24.8691 193.866 24.918 193.952 24.918C194.206 24.918 194.401 24.2539 194.538 22.9258L195.452 23.4883C195.339 24.3281 195.184 24.9629 194.989 25.3926C194.802 25.8145 194.538 26.0254 194.198 26.0254C193.929 26.0254 193.561 25.8926 193.096 25.627C192.096 25.0566 191.292 24.1719 190.682 22.9727C190.413 22.4375 190.202 21.8652 190.05 21.2559L186.376 21.3496V24.7129C187.876 24.3809 189.196 24.0293 190.337 23.6582L190.43 24.4727C188.677 25.1016 186.753 25.625 184.659 26.043L184.313 25.1055C184.61 25.0547 184.97 24.9902 185.391 24.9121V15.3496H194.216V18.6426H190.589ZM189.639 18.6426H186.376V20.5234L189.862 20.4297C189.761 19.8711 189.686 19.2754 189.639 18.6426ZM193.255 16.1289H186.376V17.8867H193.255V16.1289ZM202.555 17.8574V20.752H206.656V21.5781H202.555V24.8008H207.811V25.6387H196.408V24.8008H201.582V21.5781H197.539V20.752H201.582V17.8574H196.994V17.0312H207.23V17.8574H202.555ZM202.525 16.9961C201.666 16.3789 200.703 15.8027 199.637 15.2676L200.246 14.6699C201.215 15.0762 202.203 15.6348 203.211 16.3457L202.525 16.9961ZM214.855 17.8574V20.752H218.956V21.5781H214.855V24.8008H220.111V25.6387H208.708V24.8008H213.882V21.5781H209.839V20.752H213.882V17.8574H209.294V17.0312H219.53V17.8574H214.855ZM214.825 16.9961C213.966 16.3789 213.003 15.8027 211.937 15.2676L212.546 14.6699C213.515 15.0762 214.503 15.6348 215.511 16.3457L214.825 16.9961ZM229.334 23.3184C229.866 22.9512 230.33 22.6055 230.729 22.2812L231.362 22.8086C230.776 23.2656 230.223 23.668 229.704 24.0156C229.961 24.4102 230.268 24.7129 230.623 24.9238C230.807 25.0332 230.938 25.0879 231.016 25.0879C231.219 25.0879 231.371 24.5801 231.473 23.5645L232.287 24.0508C232.143 25.4336 231.795 26.125 231.245 26.125C231.061 26.125 230.813 26.0469 230.5 25.8906C229.911 25.5938 229.401 25.123 228.971 24.4785C228.221 24.9629 227.346 25.4082 226.346 25.8145L225.807 25.1172C226.717 24.8008 227.643 24.3594 228.584 23.793C228.354 23.3086 228.168 22.7559 228.028 22.1348H225.028V22.9844C225.672 22.9336 226.467 22.8496 227.412 22.7324V23.3828C226.713 23.4961 225.961 23.5996 225.157 23.6934L225.028 23.7109V25.3457C225.028 25.6738 224.926 25.8965 224.723 26.0137C224.575 26.0996 224.348 26.1426 224.043 26.1426C223.586 26.1426 223.098 26.1133 222.579 26.0547L222.42 25.2637C223.123 25.334 223.584 25.3691 223.803 25.3691C223.948 25.3691 224.039 25.3379 224.079 25.2754C224.102 25.2324 224.114 25.1641 224.114 25.0703V23.8105C223.161 23.9043 222.252 23.9766 221.389 24.0273L221.161 23.248C222.219 23.2051 223.204 23.1445 224.114 23.0664V22.1348H221.008V21.4258H224.114V20.752C223.364 20.8262 222.62 20.8789 221.881 20.9102L221.582 20.2598C223.399 20.1895 225.012 20.002 226.422 19.6973L226.897 20.3359C226.245 20.4727 225.621 20.5762 225.028 20.6465V21.4258H227.893C227.811 20.9414 227.752 20.3965 227.717 19.791H228.614C228.672 20.4395 228.737 20.9844 228.807 21.4258H232.405V22.1348H228.918C229.028 22.541 229.166 22.9355 229.334 23.3184ZM224.301 15.748C224.125 15.4395 223.94 15.168 223.745 14.9336L224.717 14.6934C224.916 14.9629 225.121 15.3145 225.332 15.748H228.016C228.274 15.3496 228.465 14.998 228.59 14.6934L229.621 14.8984C229.422 15.2148 229.235 15.498 229.059 15.748H232.047V16.457H227.125V17.2363H231.391V17.9102H227.125V18.7363H232.387V19.457H221.032V18.7363H226.205V17.9102H222.028V17.2363H226.205V16.457H221.366V15.748H224.301ZM230.647 21.4023C230.194 20.8555 229.756 20.4316 229.334 20.1309L229.973 19.6621C230.418 19.9707 230.866 20.373 231.315 20.8691L230.647 21.4023ZM234.175 25.2988V24.3262C234.543 23.0332 235.543 21.834 237.175 20.7285L237.509 20.5C238.232 20.0117 238.714 19.6465 238.957 19.4043C239.394 18.9746 239.613 18.5059 239.613 17.998C239.613 17.5215 239.433 17.1328 239.074 16.832C238.691 16.5078 238.189 16.3457 237.568 16.3457C236.611 16.3457 235.763 16.7656 235.025 17.6055L234.269 16.9492C235.097 15.9141 236.199 15.3965 237.574 15.3965C238.336 15.3965 238.992 15.5586 239.543 15.8828C240.39 16.3789 240.814 17.0996 240.814 18.0449C240.814 18.7168 240.546 19.3145 240.011 19.8379C239.754 20.0879 239.23 20.4863 238.441 21.0332L238.242 21.1738L237.826 21.4609C236.349 22.4727 235.513 23.4121 235.318 24.2793H240.943V25.2988H234.175ZM246.997 15.3906C248.126 15.3906 249.012 15.8652 249.657 16.8145C250.262 17.7051 250.565 18.9121 250.565 20.4355C250.565 21.8418 250.309 22.9824 249.798 23.8574C249.153 24.9629 248.216 25.5156 246.985 25.5156C245.829 25.5156 244.929 25.0195 244.284 24.0273C243.702 23.1328 243.411 21.9355 243.411 20.4355C243.411 18.8652 243.733 17.6289 244.378 16.7266C245.018 15.8359 245.891 15.3906 246.997 15.3906ZM246.979 16.3281C246.21 16.3281 245.612 16.7324 245.186 17.541C244.804 18.2637 244.612 19.2324 244.612 20.4473C244.612 21.5684 244.776 22.4805 245.104 23.1836C245.534 24.0977 246.163 24.5547 246.991 24.5547C247.745 24.5547 248.335 24.166 248.761 23.3887C249.163 22.6621 249.364 21.6836 249.364 20.4531C249.364 19.1562 249.147 18.1406 248.714 17.4062C248.292 16.6875 247.714 16.3281 246.979 16.3281ZM254.756 19.7207H255.512C256.258 19.7207 256.857 19.6016 257.311 19.3633C257.412 19.3086 257.508 19.2441 257.598 19.1699C257.992 18.8379 258.189 18.4258 258.189 17.9336C258.189 17.418 257.982 17.0137 257.568 16.7207C257.189 16.459 256.703 16.3281 256.109 16.3281C255.219 16.3281 254.4 16.6797 253.654 17.3828L252.969 16.6504C253.281 16.3457 253.637 16.0957 254.035 15.9004C254.707 15.5684 255.416 15.4023 256.162 15.4023C256.928 15.4023 257.59 15.5566 258.148 15.8652C258.969 16.3184 259.379 16.9766 259.379 17.8398C259.379 18.4961 259.139 19.0449 258.658 19.4863C258.287 19.834 257.752 20.0527 257.053 20.1426V20.1895C257.881 20.2754 258.523 20.5195 258.98 20.9219C259.477 21.3633 259.725 21.9531 259.725 22.6914C259.725 23.6211 259.357 24.3379 258.623 24.8418C257.99 25.2754 257.158 25.4922 256.127 25.4922C254.697 25.4922 253.537 25.0352 252.646 24.1211L253.344 23.3828C253.598 23.6484 253.881 23.8652 254.193 24.0332C254.799 24.3652 255.443 24.5312 256.127 24.5312C256.896 24.5312 257.5 24.3555 257.938 24.0039C258.328 23.6875 258.523 23.2441 258.523 22.6738C258.523 21.3145 257.512 20.6348 255.488 20.6348H254.756V19.7207ZM265.831 15.3906C266.96 15.3906 267.847 15.8652 268.491 16.8145C269.097 17.7051 269.4 18.9121 269.4 20.4355C269.4 21.8418 269.144 22.9824 268.632 23.8574C267.988 24.9629 267.05 25.5156 265.82 25.5156C264.663 25.5156 263.763 25.0195 263.118 24.0273C262.536 23.1328 262.245 21.9355 262.245 20.4355C262.245 18.8652 262.568 17.6289 263.212 16.7266C263.853 15.8359 264.726 15.3906 265.831 15.3906ZM265.814 16.3281C265.044 16.3281 264.446 16.7324 264.021 17.541C263.638 18.2637 263.446 19.2324 263.446 20.4473C263.446 21.5684 263.611 22.4805 263.939 23.1836C264.368 24.0977 264.997 24.5547 265.825 24.5547C266.579 24.5547 267.169 24.166 267.595 23.3887C267.997 22.6621 268.198 21.6836 268.198 20.4531C268.198 19.1562 267.982 18.1406 267.548 17.4062C267.126 16.6875 266.548 16.3281 265.814 16.3281Z" fill="#71717A"/>
</g>
<defs>
<clipPath id="clip0_1909_7304">
<rect width="271" height="26" fill="white"/>
</clipPath>
</defs>
</svg>
